Coordinates
version=1
nRows=11
nColumns=40
inDegrees=yes

Units are S.I. units (second, meters, Newtons, ...)
If the header above contains a line with 'inDegrees', this indicates whether rotational values are in degrees (yes) or radians (no).

endheader
time	pelvis_tilt	pelvis_list	pelvis_rotation	pelvis_tx	pelvis_ty	pelvis_tz	hip_flexion_r	hip_adduction_r	hip_rotation_r	knee_angle_r	knee_angle_r_beta	ankle_angle_r	subtalar_angle_r	mtp_angle_r	hip_flexion_l	hip_adduction_l	hip_rotation_l	knee_angle_l	knee_angle_l_beta	ankle_angle_l	subtalar_angle_l	mtp_angle_l	lumbar_extension	lumbar_bending	lumbar_rotation	arm_flex_r	arm_add_r	arm_rot_r	elbow_flex_r	pro_sup_r	wrist_flex_r	wrist_dev_r	arm_flex_l	arm_add_l	arm_rot_l	elbow_flex_l	pro_sup_l	wrist_flex_l	wrist_dev_l
      2.27500000	    -10.89941270	     -2.01156849	     -3.28716865	     -0.32357329	      0.97717598	     -1.11108378	      9.32279537	      1.58180526	     11.51767712	     74.65244335	      1.30293093	     -7.81042148	      0.00000000	      0.00000000	     37.36915483	     -0.61226934	     -2.37892867	     48.89475466	      0.85337446	     10.74188206	      0.00000000	      0.00000000	    -14.85565811	     -4.59769488	      9.27263573	     89.84947938	     -5.28387800	     28.16085612	     39.31624748	     85.65274475	      0.00000000	      0.00000000	     89.91133841	     -8.62369614	     36.70641746	     46.63718537	     80.76857422	      0.00000000	      0.00000000
      2.28000000	    -10.99962116	     -2.03956168	     -3.26539846	     -0.32369766	      0.97598858	     -1.11114398	      9.27558012	      1.58892086	     11.50722536	     74.57880456	      1.30164569	     -7.75795991	      0.00000000	      0.00000000	     37.65776342	     -0.68556983	     -2.45465318	     49.24634818	      0.85951092	     10.84783767	      0.00000000	      0.00000000	    -14.82495550	     -4.57558035	      9.24550800	     89.85182388	     -5.18426114	     27.85653253	     39.38756913	     85.94168704	      0.00000000	      0.00000000	     89.91268059	     -8.57109806	     36.57219872	     46.58607515	     79.15249230	      0.00000000	      0.00000000
      2.28500000	    -11.16567114	     -1.95018813	     -3.23031776	     -0.32391500	      0.97456402	     -1.11122926	      9.36301616	      1.41695159	     11.40848962	     74.56383197	      1.30138437	     -7.92348534	      0.00000000	      0.00000000	     38.00420430	     -0.63327128	     -2.55435779	     49.55458315	      0.86489064	     10.97829240	      0.00000000	      0.00000000	    -14.70919048	     -4.65676284	      9.17733728	     89.85476879	     -5.14343303	     27.89989103	     39.51671132	     85.50258972	      0.00000000	      0.00000000	     89.91350972	     -8.56201583	     36.21847035	     46.54521804	     82.33108870	      0.00000000	      0.00000000
      2.29000000	    -11.23965592	     -1.97400989	     -3.10328310	     -0.32396190	      0.97340100	     -1.11137024	      9.29284446	      1.38591401	     11.26109764	     74.50516075	      1.30036036	     -7.82539626	      0.00000000	      0.00000000	     38.24185162	     -0.62668718	     -2.53581129	     49.84619031	      0.86998014	     11.05926838	      0.00000000	      0.00000000	    -14.69801690	     -4.63746663	      9.00463359	     89.85963649	     -5.08554162	     27.82885826	     39.57933972	     85.58255438	      0.00000000	      0.00000000	     89.91452749	     -8.58992007	     36.16920539	     46.52021773	     81.22750730	      0.00000000	      0.00000000
      2.29500000	    -11.44779023	     -1.90314851	     -3.03928791	     -0.32415611	      0.97186901	     -1.11153618	      9.40267172	      1.27213662	     11.20247405	     74.48411970	      1.29999313	     -7.82678952	      0.00000000	      0.00000000	     38.65537725	     -0.56344024	     -2.59483699	     50.17741659	      0.87576113	     11.15576901	      0.00000000	      0.00000000	    -14.52735906	     -4.70483834	      8.87572528	     89.86252753	     -4.94033646	     27.62328866	     39.54770359	     85.46874718	      0.00000000	      0.00000000	     89.91551958	     -8.58400815	     35.95479212	     46.47171902	     82.41563124	      0.00000000	      0.00000000
      2.30000000	    -11.47722983	     -1.85691275	     -2.96519407	     -0.32423924	      0.97080304	     -1.11165101	      9.31827842	      1.13737639	     11.07769823	     74.43257108	      1.29909344	     -8.07200116	      0.00000000	      0.00000000	     38.80863405	     -0.50501473	     -2.60983855	     50.40272479	      0.87969350	     11.31989233	      0.00000000	      0.00000000	    -14.58851159	     -4.76022855	      8.73320914	     89.86682266	     -4.98889679	     28.29790079	     39.87615553	     82.14134141	      0.00000000	      0.00000000	     89.91655245	     -8.73736642	     36.17837739	     46.85459609	     77.92151730	      0.00000000	      0.00000000
      2.30500000	    -11.69480542	     -1.84230230	     -2.87309255	     -0.32453457	      0.96938085	     -1.11174332	      9.41542905	      1.13054994	     11.04295701	     74.39429544	      1.29842540	     -7.95949720	      0.00000000	      0.00000000	     39.24596862	     -0.49980509	     -2.65774457	     50.76483967	      0.88601360	     11.38170186	      0.00000000	      0.00000000	    -14.40726489	     -4.77904659	      8.62827233	     89.86969002	     -4.78953176	     27.37619255	     39.64570041	     85.70424560	      0.00000000	      0.00000000	     89.91752392	     -8.57992156	     35.75379719	     46.51823160	     79.47382499	      0.00000000	      0.00000000
      2.31000000	    -11.80272910	     -1.79219292	     -2.73090220	     -0.32460790	      0.96810228	     -1.11206402	      9.38582121	      0.97463998	     10.82482799	     74.29256322	      1.29664984	     -8.07448112	      0.00000000	      0.00000000	     39.53789155	     -0.38949619	     -2.61424966	     51.07555144	      0.89143654	     11.48360686	      0.00000000	      0.00000000	    -14.37094374	     -4.80655487	      8.52742414	     89.87154916	     -4.79236677	     27.13859561	     39.69732389	     85.82654550	      0.00000000	      0.00000000	     89.91834393	     -8.46883483	     35.51744881	     46.45349527	     80.77389981	      0.00000000	      0.00000000
      2.31500000	    -11.88482791	     -1.82602509	     -2.65914432	     -0.32479916	      0.96696317	     -1.11209168	      9.35835550	      0.98577748	     10.75488593	     74.27546496	      1.29635142	     -8.10334141	      0.00000000	      0.00000000	     39.75617391	     -0.39209065	     -2.57076525	     51.32887524	      0.89585787	     11.67655296	      0.00000000	      0.00000000	    -14.36106204	     -4.78972221	      8.42169607	     89.87570981	     -4.74821479	     27.17080008	     39.72821967	     85.58629151	      0.00000000	      0.00000000	     89.91910210	     -8.46758398	     35.31178239	     46.44059491	     81.48347015	      0.00000000	      0.00000000
      2.32000000	    -12.05816436	     -1.76769250	     -2.49942454	     -0.32503011	      0.96558769	     -1.11246552	      9.41837714	      0.83012904	     10.55401192	     74.24187086	      1.29576509	     -8.21904920	      0.00000000	      0.00000000	     40.08431877	     -0.28036260	     -2.62117953	     51.54936361	      0.89970612	     11.80768615	      0.00000000	      0.00000000	    -14.25597952	     -4.81500110	      8.25408838	     89.87750108	     -4.61383002	     26.82295312	     39.76012485	     85.56041311	      0.00000000	      0.00000000	     89.91996869	     -8.40897219	     35.10372962	     46.42934004	     80.99024263	      0.00000000	      0.00000000
      2.32500000	    -12.20664397	     -1.76062312	     -2.43286103	     -0.32531850	      0.96429503	     -1.11257577	      9.45926025	      0.81112829	     10.53454520	     74.16642411	      1.29444830	     -8.29139384	      0.00000000	      0.00000000	     40.46895787	     -0.23128623	     -2.51888743	     51.93097820	      0.90636655	     11.86625939	      0.00000000	      0.00000000	    -14.19112422	     -4.82379348	      8.16928649	     89.88018889	     -4.66679630	     26.95145264	     39.98079071	     85.10769947	      0.00000000	      0.00000000	     89.92123347	     -8.46374949	     35.18650347	     46.52648659	     80.20651376	      0.00000000	      0.00000000
